<svg xmlns="http://www.w3.org/2000/svg" width="900" height="620" viewBox="0 0 900 620" role="img" aria-label="GitHub Insight summary for 2026-07-02"><rect width="100%" height="100%" fill="#ffffff" /><text x="32" y="44" font-size="28" font-weight="700" fill="#0f172a">GitHub Insight Summary - 2026-07-02</text><g transform="translate(28,72) scale(0.9)"><svg xmlns="http://www.w3.org/2000/svg" width="400" height="250" viewBox="0 0 400 250" role="img" aria-label="Recommended profile mix"><rect width="100%" height="100%" fill="#f8fafc" /><text x="20" y="28" font-size="20" font-weight="700" fill="#0f172a">Recommended profile mix</text><text x="20" y="63" font-size="14" fill="#0f172a">Data analysts</text><rect x="160" y="44" width="200" height="28" rx="4" fill="#334155" /><text x="368" y="63" font-size="14" fill="#0f172a">4</text><text x="20" y="105" font-size="14" fill="#0f172a">General users</text><rect x="160" y="86" width="50" height="28" rx="4" fill="#334155" /><text x="218" y="105" font-size="14" fill="#0f172a">1</text><text x="20" y="147" font-size="14" fill="#0f172a">Data scientists</text><rect x="160" y="128" width="50" height="28" rx="4" fill="#334155" /><text x="218" y="147" font-size="14" fill="#0f172a">1</text></svg></g><g transform="translate(468,72) scale(0.9)"><svg xmlns="http://www.w3.org/2000/svg" width="400" height="250" viewBox="0 0 400 250" role="img" aria-label="Decision mix"><rect width="100%" height="100%" fill="#f8fafc" /><text x="20" y="28" font-size="20" font-weight="700" fill="#0f172a">Decision mix</text><text x="20" y="63" font-size="14" fill="#0f172a">Build</text><rect x="160" y="44" width="200" height="28" rx="4" fill="#15803d" /><text x="368" y="63" font-size="14" fill="#0f172a">2</text><text x="20" y="105" font-size="14" fill="#0f172a">Study</text><rect x="160" y="86" width="100" height="28" rx="4" fill="#2563eb" /><text x="268" y="105" font-size="14" fill="#0f172a">1</text><text x="20" y="147" font-size="14" fill="#0f172a">Save</text><rect x="160" y="128" width="100" height="28" rx="4" fill="#7c3aed" /><text x="268" y="147" font-size="14" fill="#0f172a">1</text><text x="20" y="189" font-size="14" fill="#0f172a">Skip</text><rect x="160" y="170" width="200" height="28" rx="4" fill="#64748b" /><text x="368" y="189" font-size="14" fill="#0f172a">2</text></svg></g><text x="32" y="354" font-size="20" font-weight="700" fill="#0f172a">Top skill tags</text><text x="38" y="406" font-size="13" fill="#0f172a">Python</text><rect x="210" y="390" width="520" height="18" rx="3" fill="#0f766e" /><text x="740" y="405" font-size="13" fill="#0f172a">5</text><text x="38" y="430" font-size="13" fill="#0f172a">SQL</text><rect x="210" y="414" width="312" height="18" rx="3" fill="#0f766e" /><text x="532" y="429" font-size="13" fill="#0f172a">3</text><text x="38" y="454" font-size="13" fill="#0f172a">Data cleaning</text><rect x="210" y="438" width="208" height="18" rx="3" fill="#0f766e" /><text x="428" y="453" font-size="13" fill="#0f172a">2</text><text x="38" y="478" font-size="13" fill="#0f172a">Dashboarding</text><rect x="210" y="462" width="208" height="18" rx="3" fill="#0f766e" /><text x="428" y="477" font-size="13" fill="#0f172a">2</text><text x="38" y="502" font-size="13" fill="#0f172a">AI automation</text><rect x="210" y="486" width="104" height="18" rx="3" fill="#0f766e" /><text x="324" y="501" font-size="13" fill="#0f172a">1</text><text x="38" y="526" font-size="13" fill="#0f172a">Machine learning</text><rect x="210" y="510" width="104" height="18" rx="3" fill="#0f766e" /><text x="324" y="525" font-size="13" fill="#0f172a">1</text><text x="38" y="550" font-size="13" fill="#0f172a">Optimization</text><rect x="210" y="534" width="104" height="18" rx="3" fill="#0f766e" /><text x="324" y="549" font-size="13" fill="#0f172a">1</text></svg>